<?xml version="1.0" encoding="UTF-8" standalone="no"?>
<!-- Generator: Adobe Illustrator 26.5.0, SVG Export Plug-In . SVG Version: 6.00 Build 0)  -->

<svg
   xmlns:dc="http://purl.org/dc/elements/1.1/"
   xmlns:cc="http://creativecommons.org/ns#"
   xmlns:rdf="http://www.w3.org/1999/02/22-rdf-syntax-ns#"
   xmlns:svg="http://www.w3.org/2000/svg"
   xmlns="http://www.w3.org/2000/svg"
   xmlns:sodipodi="http://sodipodi.sourceforge.net/DTD/sodipodi-0.dtd"
   xmlns:inkscape="http://www.inkscape.org/namespaces/inkscape"
   version="1.1"
   id="Layer_1"
   x="0px"
   y="0px"
   viewBox="0 0 321.92999 79.230003"
   xml:space="preserve"
   sodipodi:docname="main-logo.svg"
   width="321.92999"
   height="79.230003"
   inkscape:version="0.92.5 (2060ec1f9f, 2020-04-08)"><metadata
   id="metadata23"><rdf:RDF><cc:Work
       rdf:about=""><dc:format>image/svg+xml</dc:format><dc:type
         rdf:resource="http://purl.org/dc/dcmitype/StillImage" /><dc:title></dc:title></cc:Work></rdf:RDF></metadata><defs
   id="defs21" /><sodipodi:namedview
   pagecolor="#ffffff"
   bordercolor="#666666"
   borderopacity="1"
   objecttolerance="10"
   gridtolerance="10"
   guidetolerance="10"
   inkscape:pageopacity="0"
   inkscape:pageshadow="2"
   inkscape:window-width="1827"
   inkscape:window-height="1283"
   id="namedview19"
   showgrid="false"
   inkscape:pagecheckerboard="true"
   fit-margin-top="0"
   fit-margin-left="0"
   fit-margin-right="0"
   fit-margin-bottom="0"
   inkscape:zoom="1.5451593"
   inkscape:cx="209.46776"
   inkscape:cy="-30.355738"
   inkscape:window-x="72"
   inkscape:window-y="27"
   inkscape:window-maximized="0"
   inkscape:current-layer="Layer_1" />
<style
   type="text/css"
   id="style2">
	.st0{fill:#FFFFFF;}
</style>
<g
   id="g16"
   transform="translate(-54.55,-176.08)">
	<path
   class="st0"
   d="M 120.83,176.08 H 59.01 l -4.46,20.76 h 19.53 l -7.42,34.98 c -2.44,11.53 6.35,22.38 18.13,22.38 l 12.16,-57.36 h 19.31 z"
   id="path4"
   inkscape:connector-curvature="0"
   style="fill:#ffffff" />
	<polygon
   class="st0"
   points="129.2,176.08 112.58,254.2 135.45,254.2 139.69,233.77 168.71,233.77 172.72,214.69 143.82,214.69 147.5,197.17 181.43,197.17 186,176.08 "
   id="polygon6"
   style="fill:#ffffff" />
	<path
   class="st0"
   d="m 236.11,176.08 h -0.01 l -9.71,45.64 c -1.67,7.7 -4.58,14.28 -12.39,14.28 -7.81,0 -7.92,-6.7 -6.25,-14.28 l 9.61,-45.64 h -22.88 l -9.26,43.86 c -3.57,17.07 -2.01,35.37 25.67,35.37 27.68,0 35.15,-18.19 38.72,-35.37 l 9.26,-43.86 z"
   id="path8"
   inkscape:connector-curvature="0"
   style="fill:#ffffff" />
	<polygon
   class="st0"
   points="285.76,206.88 288.21,195.16 323.25,195.16 327.38,176.08 269.47,176.08 252.84,254.2 310.76,254.2 314.88,234.89 279.84,234.89 282.52,222.06 312.54,222.06 315.78,206.88 "
   id="polygon10"
   style="fill:#ffffff" />
	<path
   class="st0"
   d="m 347.58,233 7.38,-34.54 v -0.01 c 2.46,-11.52 -6.32,-22.37 -18.09,-22.37 l -16.63,78.12 h 51.78 l 4.46,-21.2 z m -18.51,15.15 c -0.26,1.17 -1.22,1.95 -2.39,1.94 l 0.01,-0.01 c -0.6,0 -1.12,-0.22 -1.44,-0.6 -0.16,-0.2 -0.27,-0.43 -0.33,-0.68 -0.06,-0.27 -0.05,-0.57 0.01,-0.88 0.26,-1.16 1.24,-1.93 2.44,-1.93 0.77,0 1.19,0.33 1.41,0.6 0.33,0.41 0.43,0.96 0.29,1.56 z m 4.87,-1.66 c 0.43,0.53 1.12,0.8 2.04,0.81 0.98,0 1.91,-0.23 2.91,-0.73 l 0.95,-0.47 -0.68,3.02 -0.22,0.1 c -1.51,0.75 -2.69,0.84 -3.55,0.83 l 0.01,0.01 c -1.78,-0.01 -3.2,-0.62 -4.12,-1.75 -0.46,-0.56 -0.77,-1.25 -0.93,-2.03 -0.21,-1.02 -0.18,-2.18 0.13,-3.45 0.85,-3.6 3.71,-5.82 7.47,-5.79 1.26,0.01 2.38,0.28 3.33,0.81 l 0.32,0.18 -0.63,2.75 -0.59,-0.31 c -0.93,-0.5 -1.69,-0.71 -2.56,-0.71 -2.11,-0.01 -3.74,1.35 -4.25,3.56 -0.31,1.37 -0.18,2.49 0.37,3.17 z m 12,3.66 v -0.01 c -1.78,-0.01 -3.17,-0.58 -4.04,-1.65 -0.44,-0.54 -0.73,-1.18 -0.89,-1.92 -0.21,-0.97 -0.16,-2.11 0.13,-3.37 0.87,-3.72 3.66,-6.1 7.11,-6.07 1.78,0.01 3.18,0.59 4.05,1.66 1,1.24 1.27,3.06 0.75,5.26 -0.88,3.73 -3.67,6.13 -7.11,6.1 z m 25.58,-6.97 -1.56,6.89 -3.2,-0.03 1.61,-7.11 c 0.19,-0.81 0.52,-2.33 0.11,-2.85 -0.07,-0.08 -0.19,-0.19 -0.54,-0.2 -1.06,-0.01 -3.1,1.16 -4.75,9.11 v 0.02 l -0.16,1 -3.23,-0.01 1.53,-6.91 c 0.2,-0.88 0.58,-2.52 0.14,-3.04 -0.06,-0.08 -0.18,-0.19 -0.5,-0.19 -1.24,-0.01 -3.08,1.57 -4.77,9.17 l -0.17,0.95 -3.22,-0.02 2.82,-12.54 3.2,0.03 -0.26,1.16 c 0.98,-0.9 2.12,-1.37 3.31,-1.37 0.87,0 1.56,0.26 2.05,0.76 0.36,0.37 0.61,0.85 0.74,1.46 v 0.01 c 1.17,-1.41 2.65,-2.19 4.19,-2.18 1,0.01 1.76,0.33 2.27,0.95 0.82,0.95 0.94,2.57 0.39,4.94 z"
   id="path12"
   inkscape:connector-curvature="0"
   style="fill:#ffffff" />
	<path
   class="st0"
   d="m 349.59,240.46 c -0.36,-0.44 -0.92,-0.67 -1.67,-0.68 -1.95,-0.02 -3.26,1.86 -3.7,3.73 -0.33,1.43 -0.21,2.6 0.34,3.28 0.37,0.45 0.93,0.68 1.67,0.69 1.94,0.01 3.23,-1.88 3.67,-3.76 h 0.01 c 0.21,-0.89 0.24,-1.68 0.11,-2.3 -0.08,-0.38 -0.22,-0.7 -0.43,-0.96 z"
   id="path14"
   inkscape:connector-curvature="0"
   style="fill:#ffffff" />
</g>
</svg>