<?xml version="1.0" standalone="no"?>
<!DOCTYPE svg PUBLIC "-//W3C//DTD SVG 20010904//EN"
 "http://www.w3.org/TR/2001/REC-SVG-20010904/DTD/svg10.dtd">
<svg version="1.0" xmlns="http://www.w3.org/2000/svg"
 width="512.000000pt" height="512.000000pt" viewBox="0 0 512.000000 512.000000"
 preserveAspectRatio="xMidYMid meet">
<metadata>
Created by potrace 1.14, written by Peter Selinger 2001-2017
</metadata>
<g transform="translate(0.000000,512.000000) scale(0.100000,-0.100000)"
fill="#000000" stroke="none">
<path d="M173 4068 c-1 -7 -17 -87 -38 -178 -20 -91 -40 -183 -45 -205 -7 -35
-43 -203 -56 -260 -2 -11 -7 -33 -9 -50 -6 -29 -9 -45 -21 -85 -5 -20 -1 -20
375 -20 210 0 381 -2 381 -4 0 -3 -7 -38 -16 -78 -8 -40 -18 -84 -20 -98 -3
-14 -7 -31 -10 -39 -2 -8 -7 -30 -10 -50 -3 -20 -12 -61 -19 -91 -7 -30 -16
-68 -18 -85 -3 -16 -17 -83 -31 -147 -14 -64 -27 -127 -30 -140 -2 -13 -11
-55 -20 -93 -14 -69 -20 -96 -32 -152 -3 -16 -23 -109 -44 -208 -55 -258 -60
-302 -46 -419 6 -58 43 -179 67 -221 68 -122 110 -174 199 -246 103 -84 255
-144 386 -154 59 -4 62 -3 68 20 3 13 20 88 37 167 16 79 32 152 34 163 4 17
12 55 39 190 3 11 16 74 31 140 21 99 49 229 69 331 3 10 10 42 16 69 6 28 13
61 15 75 2 14 24 118 49 232 25 113 47 217 50 230 3 12 32 152 65 310 34 158
61 290 61 293 0 2 170 6 378 7 l377 3 67 300 c37 165 69 311 72 325 2 14 11
58 20 98 9 40 16 75 16 78 0 2 -541 4 -1203 4 -956 0 -1204 -3 -1204 -12z"/>
<path d="M2905 4070 c-3 -5 -4 -10 -1 -10 3 0 -1 -21 -9 -48 -8 -26 -17 -65
-21 -87 -3 -22 -19 -98 -34 -170 -16 -71 -31 -142 -34 -157 -6 -27 -10 -48
-20 -93 -10 -44 -68 -314 -121 -565 -31 -146 -77 -359 -101 -475 -25 -115 -47
-219 -49 -230 -3 -11 -19 -85 -36 -165 -17 -80 -32 -154 -35 -165 -16 -81
-137 -647 -144 -675 -5 -19 -11 -51 -14 -71 -3 -20 -8 -42 -10 -50 -3 -8 -7
-26 -10 -41 l-4 -27 443 1 c405 0 445 1 449 16 5 15 94 445 143 687 9 44 20
82 24 85 4 3 258 5 564 5 306 0 559 3 561 7 2 3 8 28 14 55 5 26 25 125 45
218 45 212 44 206 49 230 2 11 14 65 25 119 12 55 21 102 21 107 0 4 -250 7
-555 7 -306 -1 -558 2 -561 5 -3 3 2 38 10 79 17 75 23 104 32 148 3 14 20 97
39 185 19 88 36 171 39 185 2 14 7 37 11 52 l7 27 656 0 c361 1 659 4 662 8 6
7 14 41 36 153 3 14 18 84 34 155 31 139 76 344 84 385 3 14 8 36 11 50 3 14
7 35 9 48 l3 22 -1103 0 c-724 0 -1105 -3 -1109 -10z"/>
</g>
</svg>
